<svg height="512pt" viewBox="0 0 512 512.00075" width="512pt" xmlns="http://www.w3.org/2000/svg"><path d="m499.523438 274.476562v-140.601562c7.550781-5.453125 12.476562-14.324219 12.476562-24.328125 0-8.492187-3.554688-16.167969-9.246094-21.632813 5.683594-18.992187-.574218-39.691406-16.894531-53.621093l-37.367187-31.898438c-3.738282-3.191406-9.246094-3.191406-12.984376 0l-37.367187 31.894531c-16.320313 13.929688-22.578125 34.632813-16.894531 53.625-5.691406 5.464844-9.246094 13.136719-9.246094 21.632813 0 10.003906 4.929688 18.875 12.480469 24.328125v93.765625h-107.039063c-4.054687-22.574219-17.867187-44.0625-40.539062-60.640625l-74.570313-54.515625c7.203125-4.234375 13.1875-10.507813 17.09375-18.355469 1.652344-3.308594 1.335938-7.257812-.8125-10.269531-2.148437-3.011719-5.78125-4.59375-9.449219-4.101563-5.992187.785157-13.679687-3.605468-19.578124-11.207031-6.230469-8.023437-8.902344-17.800781-6.503907-23.777343 1.363281-3.382813.773438-7.234376-1.535156-10.058594-2.304687-2.820313-5.964844-4.164063-9.550781-3.507813-20.875 3.839844-36.027344 22.050781-36.027344 43.304688 0 16.144531 8.738281 30.28125 21.734375 37.945312l-10.019531 7.328125c-4.460938 3.257813-5.429688 9.515625-2.171875 13.972656 3.257812 4.457032 9.515625 5.433594 13.972656 2.171876l20.515625-15 85.097656 62.214843c20.75 15.171875 32.234375 34.703125 33.488282 54.769531.007812.304688.027343.605469.0625.902344.472656 10.066406-1.632813 20.25-6.4375 30.074219-.730469-.054687-1.464844-.089844-2.210938-.089844h-220c-.742188 0-1.480469.035157-2.207031.089844-14.539063-29.710937-4.355469-62.742187 27.109375-85.746094 4.460937-3.257812 5.433594-9.515625 2.171875-13.976562-3.257813-4.457031-9.515625-5.429688-13.972657-2.167969-39.09375 28.582031-51.886718 71.761719-33.617187 109.945312-5.832031 5.476563-9.484375 13.246094-9.484375 21.859376 0 11.488281 6.496094 21.480468 16 26.519531v176.675781c0 5.523438 4.476562 10 10 10h463.519531c5.523438 0 10-4.476562 10-10v-178.867188c7.550781-5.453124 12.480469-14.324218 12.480469-24.328124 0-10.003907-4.925781-18.875-12.476562-24.328126zm-376.585938-216.898437c1.476562 7.855469 5.160156 15.914063 10.851562 23.242187 5.136719 6.617188 11.167969 11.679688 17.542969 14.910157-3.410156 1.820312-7.28125 2.816406-11.332031 2.816406-13.25 0-24.03125-10.78125-24.03125-24.03125 0-6.546875 2.628906-12.5625 6.96875-16.9375zm281.542969 81.96875h75.042969v129.257813h-75.042969zm-6.371094-20.789063c-3.585937-1.519531-6.109375-5.078124-6.109375-9.210937 0-5.515625 4.488281-10 10-10h80c5.515625 0 10 4.484375 10 10 0 4.132813-2.523438 7.691406-6.109375 9.210937-.085937.035157-.179687.0625-.265625.097657-1.125.441406-2.34375.691406-3.625.691406h-80c-1.277344 0-2.5-.25-3.625-.691406-.085938-.035157-.175781-.0625-.265625-.097657zm3.890625 190.046876c-1.277344 0-2.5-.25-3.625-.691407-.085938-.039062-.175781-.0625-.265625-.097656-3.585937-1.523437-6.109375-5.078125-6.109375-9.214844 0-4.132812 2.523438-7.6875 6.109375-9.210937.089844-.03125.179687-.058594.265625-.097656 1.125-.4375 2.347656-.6875 3.625-.6875h80c1.28125 0 2.5.25 3.625.6875.085938.039062.179688.066406.265625.097656 3.585937 1.523437 6.109375 5.078125 6.109375 9.210937 0 5.515625-4.488281 10-10 10h-80zm9.125-259.300782 30.875-26.355468 30.875 26.355468c9.515625 8.121094 13.582031 19.355469 11.363281 30.132813-.738281-.054688-1.484375-.089844-2.238281-.089844h-80c-.753906 0-1.5.035156-2.238281.089844-2.21875-10.777344 1.847656-22.007813 11.363281-30.132813zm-132.65625 198.136719h106.011719v26.835937c-7.550781 5.453126-12.480469 14.324219-12.480469 24.328126 0 10.003906 4.929688 18.875 12.480469 24.328124v13.410157h-120.480469v-11.21875c9.503906-5.039063 16-15.035157 16-26.519531 0-8.613282-3.652344-16.382813-9.484375-21.859376 4.574219-9.554687 7.199219-19.425781 7.953125-29.304687zm-248.46875 61.164063c-.671875 0-1.328125-.070313-1.964844-.195313-.023437-.007813-.042968-.011719-.066406-.015625-4.542969-.9375-7.96875-4.972656-7.96875-9.789062 0-5.515626 4.484375-10 10-10h220c5.511719 0 10 4.484374 10 10 0 4.816406-3.425781 8.851562-7.96875 9.789062-.023438.003906-.042969.007812-.066406.015625-.632813.125-1.292969.195313-1.964844.195313zm38.464844 183.195312v-59.6875c0-12.464844 10.136718-22.605469 22.601562-22.613281h.011719.015625c12.460938.007812 22.597656 10.148437 22.597656 22.613281v59.6875zm65.226562 0v-59.6875c0-19.707031-13.449218-36.328125-31.652344-41.175781 3.914063-17.355469 19.441407-30.359375 37.960938-30.359375s34.046875 13.003906 37.960938 30.359375c-18.203126 4.847656-31.652344 21.46875-31.652344 41.175781v59.6875zm32.617188 0v-59.6875c0-12.464844 10.136718-22.605469 22.601562-22.613281h.011719.011719c12.464844.007812 22.601562 10.148437 22.601562 22.613281v59.6875zm77.691406 0h-12.464844v-59.6875c0-20.296875-14.265625-37.3125-33.292968-41.574219-4.332032-28.25-28.800782-49.960937-58.242188-49.960937s-53.910156 21.710937-58.242188 49.960937c-19.027343 4.265625-33.292968 21.277344-33.292968 41.574219v59.6875h-12.464844v-163.195312h208zm20 0v-95.453125h20.238281c5.523438 0 10-4.480469 10-10 0-5.523437-4.476562-10-10-10h-20.238281v-20.003906h120.480469v20.003906h-20.242188c-5.519531 0-10 4.476563-10 10 0 5.519531 4.480469 10 10 10h20.242188v95.453125zm140.480469 0v-163.195312h75.042969v163.195312zm0 0"/><path d="m453.011719 428.402344h-22.023438c-5.523437 0-10 4.480468-10 10 0 5.523437 4.476563 10 10 10h22.023438c5.523437 0 10-4.476563 10-10 0-5.519532-4.476563-10-10-10zm0 0"/><path d="m453.011719 368.402344h-22.023438c-5.523437 0-10 4.476562-10 10 0 5.519531 4.476563 10 10 10h22.023438c5.523437 0 10-4.480469 10-10 0-5.523438-4.476563-10-10-10zm0 0"/><path d="m430.988281 244.175781h22.023438c5.523437 0 10-4.476562 10-10 0-5.523437-4.476563-10-10-10h-22.023438c-5.523437 0-10 4.476563-10 10 0 5.523438 4.476563 10 10 10zm0 0"/><path d="m430.988281 184.175781h22.023438c5.523437 0 10-4.480469 10-10 0-5.523437-4.476563-10-10-10h-22.023438c-5.523437 0-10 4.476563-10 10 0 5.519531 4.476563 10 10 10zm0 0"/><path d="m324.242188 376.546875h-.007813c-5.519531 0-9.996094 4.476563-9.996094 10 0 5.519531 4.480469 10 10.003907 10 5.523437 0 10-4.480469 10-10 0-5.523437-4.476563-10-10-10zm0 0"/><path d="m82.371094 160.679688c2.257812 0 4.53125-.757813 6.398437-2.316407 4.246094-3.535156 4.816407-9.84375 1.28125-14.085937-3.535156-4.242188-9.839843-4.8125-14.082031-1.277344l-.007812.003906c-4.242188 3.535156-4.8125 9.839844-1.277344 14.082032 1.976562 2.371093 4.820312 3.59375 7.6875 3.59375zm0 0"/></svg>